<?xml version="1.0" encoding="UTF-8"?>
<svg id="b" data-name="Layer 2" xmlns="http://www.w3.org/2000/svg" width="530.46" height="333.817" viewBox="0 0 530.46 333.817">
  <g id="c" data-name="Layer 1">
    <path d="M345.014,192.475l21.084-72.792s0-.001.001-.002L498.148,7.969s.004-.001.006,0l15.566,18.401s.001.004,0,.005l-100.359,142.046-40.351,57.141s-.005.002-.007,0l-27.988-33.084s-.001-.002,0-.004ZM362.648,72.42h-63.953s-.003.001-.004.003l-50.805,175.391s.001.005.004.005h63.949s.003-.001.004-.003l50.81-175.391s-.001-.005-.004-.005ZM166.871,247.82h63.953s.003-.001.004-.003l50.805-175.391s-.001-.005-.004-.005h-63.944s-.003.001-.004.003l-50.814,175.391s.001.005.004.005ZM160.297,64.619c79.603-36.478,176.562-52.829,261.183-25.611,4.24,1.436,8.51,3.043,12.763,4.836.005.002.01.001.014-.002l24.773-20.967C422.085,5.523,380.816.309,340.339,0c-79.727.797-165.692,22.073-235.259,64.878-.002.001-.003.004,0,.006l17.204,20.334s.009.005.014.002c12.333-7.642,25.131-14.474,37.999-20.601ZM383.534,248.482c-59.928,29.888-126.769,46.862-193.828,47.258-32.821-.287-66.887-4.224-97.344-16.735-.005-.002-.011-.001-.015.002l-29.241,24.744s-.002.005,0,.006c11.362,6.401,23.408,11.527,35.384,15.372,66.662,21.469,139.095,17.322,206.372.923,44.874-11.551,89.017-29.46,127.689-55.305.002-.001.002-.004,0-.005l-25.05-29.617s-.008-.004-.012-.002c-7.881,4.746-15.911,9.187-23.958,13.359ZM184.674,127.756l-27.984-33.084s-.005-.002-.007,0l-40.351,57.141L15.968,293.86s0,.004,0,.005l15.571,18.405s.004.002.006,0l132.044-111.717s.001-.001.001-.002l21.084-72.791s0-.003,0-.004ZM404.229,209.763l86.71,102.507s.004.002.006,0l18.405-15.571s.002-.003.001-.005l-67.481-140.21s-.005-.003-.007,0l-37.635,53.274s0,.004,0,.005ZM125.459,110.477L38.748,7.969s-.004-.002-.006,0l-18.405,15.566s-.002.003-.001.005l67.481,140.21s.005.003.007,0l37.635-53.269s0-.004,0-.005ZM39.355,236.704c-5.314-9.743-8.001-20.354-8.001-31.534,0-14.726,4.66-30.437,14.129-46.461,4.371-7.236,9.27-14.094,14.581-20.599.003-.004.004-.01.002-.015l-13.363-27.754s0,0-.001,0C15.508,142.289-8.207,185.67,2.69,230.881c3.045,12.923,8.685,24.53,16.172,34.835,0,0,0,0,0,0l20.493-29.012ZM488.381,86.306c3.301,5.601,5.867,11.69,7.496,18.293,5.283,21.508-2.056,44.453-13.925,62.842-3.596,5.542-7.527,10.845-11.741,15.9-.003.004-.004.009-.002.014l16.88,35.08s.005.003.007.001c29.476-32.135,52.132-77.479,40.045-121.839-3.628-13.934-10.549-26.521-19.565-37.458l-19.195,27.166Z" fill="#fff"/>
  </g>
</svg>